<svg width="394" height="422" viewBox="0 0 394 422" fill="none" xmlns="http://www.w3.org/2000/svg">
<path opacity="0.21" fill-rule="evenodd" clip-rule="evenodd" d="M36.5642 288.971L175.076 211.055L36.5642 132.872C1.55697 113.175 -10.3844 69.6812 9.84202 35.6377C30.0295 1.55623 74.6832 -10.0952 109.535 9.52628L357.581 149.192C374.812 158.984 386.442 174.544 391.421 191.927C393.016 197.544 393.833 203.16 393.949 208.777C394.261 216.52 393.133 224.338 390.682 231.967C385.625 248.514 374.112 263.239 357.581 272.614L109.535 412.355C74.6832 432.053 30.0295 420.401 9.84202 386.358C-10.3844 352.2 1.55697 308.745 36.5642 288.971" fill="#71D3DC"/>
</svg>
