<svg width="394" height="359" viewBox="0 0 394 359" fill="none" xmlns="http://www.w3.org/2000/svg">
<path opacity="0.21" fill-rule="evenodd" clip-rule="evenodd" d="M36.5642 225.971L175.076 148.055L36.5642 69.8723C1.55698 50.1749 -10.3844 6.68116 9.84201 -27.3623C30.0295 -61.4438 74.6833 -73.0952 109.535 -53.4737L357.581 86.1919C374.812 95.9837 386.442 111.544 391.421 128.927C393.016 134.544 393.833 140.16 393.949 145.777C394.261 153.52 393.133 161.338 390.682 168.967C385.625 185.514 374.112 200.239 357.581 209.614L109.535 349.355C74.6833 369.053 30.0295 357.401 9.84201 323.358C-10.3844 289.2 1.55698 245.745 36.5642 225.971Z" fill="#71D3DC"/>
</svg>
