<svg width="711" height="375" viewBox="0 0 711 375" fill="none" xmlns="http://www.w3.org/2000/svg">
<rect width="711" height="375" rx="16" fill="#11567F"/>
<path d="M194.753 229.056L200.065 236.16C200.065 236.16 195.969 240.896 186.945 240.896C174.529 240.896 167.169 231.808 167.169 220.8C167.169 209.792 174.529 200.768 186.945 200.768C195.969 200.768 200.065 205.44 200.065 205.44L194.753 212.544C194.753 212.544 192.193 209.664 187.073 209.664C181.057 209.664 176.769 214.144 176.769 220.8C176.769 227.456 181.057 231.936 187.073 231.936C192.193 231.936 194.753 229.056 194.753 229.056ZM224.817 201.6L239.473 240H229.489L227.121 233.088H212.401L210.033 240H200.049L214.705 201.6H224.817ZM219.761 211.584L214.897 225.792H224.625L219.761 211.584ZM269.275 240H242.843V201.6H252.123V232H269.275V240ZM298.815 229.056L304.127 236.16C304.127 236.16 300.031 240.896 291.007 240.896C278.591 240.896 271.231 231.808 271.231 220.8C271.231 209.792 278.591 200.768 291.007 200.768C300.031 200.768 304.127 205.44 304.127 205.44L298.815 212.544C298.815 212.544 296.255 209.664 291.135 209.664C285.119 209.664 280.831 214.144 280.831 220.8C280.831 227.456 285.119 231.936 291.135 231.936C296.255 231.936 298.815 229.056 298.815 229.056ZM325.168 240.896C314.8 240.896 308.144 233.344 308.144 223.424V201.6H317.424V223.424C317.424 228.224 319.984 231.872 325.168 231.872C330.544 231.872 332.912 228.224 332.912 223.424V201.6H342.192V223.424C342.192 233.344 335.792 240.896 325.168 240.896ZM376.025 240H349.593V201.6H358.873V232H376.025V240ZM401.942 201.6L416.598 240H406.614L404.246 233.088H389.526L387.158 240H377.174L391.83 201.6H401.942ZM396.886 211.584L392.022 225.792H401.75L396.886 211.584ZM413.347 209.6V201.6H444.259V209.6H433.443V240H424.163V209.6H413.347ZM458.998 201.6V240H449.718V201.6H458.998ZM501.722 201.6V240H494.554L476.122 217.6V240H466.906V201.6H474.074L492.506 223.616V201.6H501.722ZM526.296 224.448V217.152H545.432V222.72C545.432 233.664 538.328 240.832 527.128 240.832C514.84 240.832 507.544 231.808 507.544 220.8C507.544 209.792 514.968 200.768 527.256 200.768C537.048 200.768 541.144 205.568 541.144 205.568L535.576 212.736C535.576 212.736 532.632 209.664 527.128 209.664C521.432 209.664 517.144 214.144 517.144 220.8C517.144 227.456 521.432 231.936 527.128 231.936C532.376 231.936 534.936 228.864 535.064 224.896V224.448H526.296ZM170.481 273.248L176.945 261.6H186.929L173.489 285.088V300H164.209V285.216L150.705 261.6H160.689L167.153 273.248L168.817 277.152L170.481 273.248ZM205.659 300.896C194.075 300.896 186.011 291.808 186.011 280.8C186.011 269.792 194.075 260.768 205.659 260.768C217.371 260.768 225.435 269.792 225.435 280.8C225.435 291.808 217.371 300.896 205.659 300.896ZM205.659 291.872C211.355 291.872 215.835 287.456 215.835 280.8C215.835 274.144 211.355 269.728 205.659 269.728C200.091 269.728 195.611 274.144 195.611 280.8C195.611 287.456 200.091 291.872 205.659 291.872ZM247.699 300.896C237.331 300.896 230.675 293.344 230.675 283.424V261.6H239.955V283.424C239.955 288.224 242.515 291.872 247.699 291.872C253.075 291.872 255.443 288.224 255.443 283.424V261.6H264.723V283.424C264.723 293.344 258.323 300.896 247.699 300.896ZM272.124 261.6H289.084C297.852 261.6 303.868 267.04 303.868 274.528C303.868 279.84 301.116 283.872 296.7 285.92V286.624L305.34 299.36V300H294.78L286.78 287.392H281.404V300H272.124V261.6ZM294.268 274.528C294.268 271.2 291.836 269.6 288.444 269.6H281.404V279.52H288.508C291.772 279.52 294.268 277.792 294.268 274.528ZM323.187 261.6H340.147C348.915 261.6 354.931 267.04 354.931 274.528C354.931 279.84 352.179 283.872 347.763 285.92V286.624L356.403 299.36V300H345.843L337.843 287.392H332.467V300H323.187V261.6ZM345.331 274.528C345.331 271.2 342.899 269.6 339.507 269.6H332.467V279.52H339.571C342.835 279.52 345.331 277.792 345.331 274.528ZM386.458 276.896V284.192H370.842V292H389.466V300H361.562V261.6H389.466V269.6H370.842V276.896H386.458ZM393.255 295.712L398.311 288.608C398.311 288.608 403.815 292.32 408.999 292.32C411.879 292.32 413.223 291.04 413.223 289.12C413.223 287.136 412.007 286.112 406.631 284.512C398.567 282.144 393.959 279.008 393.959 272.672C393.959 265.696 398.695 260.768 408.807 260.768C419.239 260.768 423.271 264.864 423.271 264.864L418.279 272.416C418.279 272.416 414.247 269.216 408.807 269.216C405.671 269.216 404.647 270.432 404.647 272.032C404.647 273.952 406.311 274.72 410.727 276C419.239 278.368 424.103 281.696 424.103 288.096C424.103 295.072 419.431 300.832 409.319 300.832C398.695 300.832 393.255 295.712 393.255 295.712ZM446.324 300.896C435.956 300.896 429.3 293.344 429.3 283.424V261.6H438.58V283.424C438.58 288.224 441.14 291.872 446.324 291.872C451.7 291.872 454.068 288.224 454.068 283.424V261.6H463.348V283.424C463.348 293.344 456.948 300.896 446.324 300.896ZM497.181 300H470.749V261.6H480.029V292H497.181V300ZM494.191 269.6V261.6H525.103V269.6H514.287V300H505.007V269.6H494.191ZM528.13 295.712L533.186 288.608C533.186 288.608 538.69 292.32 543.874 292.32C546.754 292.32 548.098 291.04 548.098 289.12C548.098 287.136 546.882 286.112 541.506 284.512C533.442 282.144 528.834 279.008 528.834 272.672C528.834 265.696 533.57 260.768 543.682 260.768C554.114 260.768 558.146 264.864 558.146 264.864L553.154 272.416C553.154 272.416 549.122 269.216 543.682 269.216C540.546 269.216 539.522 270.432 539.522 272.032C539.522 273.952 541.186 274.72 545.602 276C554.114 278.368 558.978 281.696 558.978 288.096C558.978 295.072 554.306 300.832 544.194 300.832C533.57 300.832 528.13 295.712 528.13 295.712Z" fill="white"/>
<path fill-rule="evenodd" clip-rule="evenodd" d="M373.901 56.5068C369.496 56.5068 365.618 58.8187 363.426 62.2927C362.532 62.0924 361.607 61.9876 360.667 61.9876C357.354 61.9876 354.24 63.2791 351.901 65.6249C349.573 67.9522 348.282 71.0625 348.282 74.3731C348.282 75.3133 348.39 76.235 348.59 77.1289C345.113 79.3237 342.801 83.2015 342.801 87.6064C342.801 92.0144 345.113 95.8891 348.59 98.0839C348.39 98.9778 348.282 99.9026 348.282 100.843C348.282 104.153 349.573 107.264 351.916 109.6C354.243 111.934 357.357 113.222 360.667 113.222C361.607 113.222 362.529 113.12 363.423 112.917C365.618 116.394 369.493 118.706 373.901 118.706C378.309 118.706 382.186 116.394 384.378 112.917C385.272 113.12 386.197 113.222 387.137 113.222C390.444 113.222 393.558 111.931 395.897 109.591C398.228 107.267 399.519 104.156 399.522 100.843C399.522 99.9026 399.415 98.9778 399.214 98.0839C402.688 95.8861 405 92.0144 405 87.6064C405 83.2015 402.688 79.3268 399.214 77.1289C399.415 76.235 399.522 75.3133 399.522 74.3731C399.522 71.0594 398.231 67.9461 395.882 65.6064C393.561 63.2791 390.448 61.9876 387.137 61.9876C386.194 61.9876 385.272 62.0924 384.378 62.2927C382.183 58.8187 378.309 56.5068 373.901 56.5068M373.9 64.2129C376.483 64.2129 378.583 66.309 378.583 68.8921C378.583 69.0956 378.546 69.2898 378.518 69.4902C380.297 69.9433 381.964 70.643 383.496 71.5585C383.62 71.4044 383.678 71.2102 383.829 71.0653C384.742 70.1498 385.938 69.6936 387.137 69.6936C388.333 69.6936 389.529 70.1498 390.441 71.0653C392.272 72.8902 392.272 75.8556 390.441 77.6804C390.296 77.8284 390.105 77.8869 389.948 78.0102C390.867 79.5423 391.566 81.2099 392.016 82.9885C392.214 82.9639 392.414 82.9299 392.614 82.9299C395.197 82.9299 397.294 85.023 397.294 87.6061C397.294 90.1924 395.197 92.2854 392.614 92.2854C392.414 92.2854 392.214 92.2515 392.016 92.2238C391.566 94.0024 390.867 95.67 389.948 97.202C390.105 97.3253 390.296 97.3839 390.441 97.5349C392.272 99.3567 392.272 102.322 390.441 104.147C389.529 105.059 388.333 105.516 387.137 105.516C385.938 105.516 384.742 105.059 383.829 104.147C383.678 104.002 383.62 103.808 383.496 103.651C381.964 104.569 380.297 105.269 378.518 105.725C378.546 105.926 378.583 106.117 378.583 106.32C378.583 108.903 376.483 110.999 373.9 110.999C371.317 110.999 369.221 108.903 369.221 106.32C369.221 106.117 369.258 105.926 369.283 105.725C367.507 105.269 365.836 104.569 364.304 103.654C364.184 103.808 364.123 104.002 363.972 104.147C363.062 105.059 361.866 105.516 360.667 105.516C359.468 105.516 358.272 105.059 357.363 104.147C355.535 102.322 355.535 99.3567 357.363 97.5349C357.504 97.3839 357.699 97.3253 357.853 97.202C356.937 95.67 356.237 94.0024 355.784 92.2238C355.587 92.2515 355.39 92.2854 355.186 92.2854C352.603 92.2854 350.507 90.1924 350.507 87.6061C350.507 85.023 352.603 82.9299 355.186 82.9299C355.39 82.9299 355.587 82.9639 355.784 82.9885C356.237 81.2099 356.937 79.5423 357.856 78.0102C357.699 77.8869 357.504 77.8284 357.363 77.6804C355.535 75.8556 355.535 72.8902 357.363 71.0653C358.272 70.1498 359.468 69.6936 360.667 69.6936C361.866 69.6936 363.062 70.1498 363.972 71.0653C364.123 71.2102 364.184 71.4044 364.304 71.5585C365.836 70.643 367.507 69.9433 369.283 69.4902C369.258 69.2898 369.221 69.0956 369.221 68.8921C369.221 66.309 371.317 64.2129 373.9 64.2129" fill="#29B5E8"/>
<path fill-rule="evenodd" clip-rule="evenodd" d="M373.902 76.8232C367.959 76.8232 363.122 81.6597 363.122 87.6059C363.122 93.5521 367.959 98.3886 373.902 98.3886C379.848 98.3886 384.684 93.5521 384.684 87.6059C384.684 81.6597 379.848 76.8232 373.902 76.8232M373.902 81.7558C377.132 81.7558 379.752 84.379 379.752 87.6064C379.752 90.8369 377.132 93.4571 373.902 93.4571C370.674 93.4571 368.057 90.8369 368.057 87.6064C368.057 84.379 370.674 81.7558 373.902 81.7558" fill="#29B5E8"/>
<path fill-rule="evenodd" clip-rule="evenodd" d="M338.372 110.422C335.931 110.422 333.619 111.217 331.726 112.589C330.358 112.016 328.872 111.707 327.337 111.707C325.413 111.707 323.502 112.204 321.816 113.144C319.177 114.611 317.263 117.028 316.437 119.941C316.311 120.382 316.212 120.825 316.141 121.272C313 122.567 310.506 125.252 309.538 128.649C308.552 132.12 309.301 135.68 311.271 138.402C311.098 138.815 310.95 139.243 310.824 139.678C309.994 142.597 310.352 145.661 311.829 148.309C313.533 151.37 316.554 153.442 319.954 153.981C321.23 157.082 323.863 159.591 327.321 160.581C328.351 160.874 329.39 161.018 330.432 161.018C332.876 161.018 335.188 160.223 337.081 158.848C338.446 159.422 339.938 159.733 341.473 159.733C343.4 159.733 345.308 159.234 346.994 158.293C349.629 156.826 351.544 154.413 352.373 151.5C352.499 151.059 352.595 150.615 352.669 150.168C355.807 148.87 358.301 146.188 359.269 142.788C360.255 139.321 359.503 135.76 357.536 133.038C357.709 132.625 357.857 132.194 357.983 131.756C358.815 128.84 358.458 125.776 356.978 123.128C355.28 120.067 352.256 117.986 348.84 117.45C347.564 114.34 344.935 111.84 341.476 110.857C340.465 110.567 339.42 110.422 338.372 110.422M338.373 118.128C338.7 118.128 339.036 118.174 339.366 118.267C341.292 118.815 342.411 120.822 341.865 122.749C341.819 122.9 341.751 123.042 341.69 123.183C342.926 123.895 344.02 124.774 344.97 125.782C345.093 125.689 345.179 125.563 345.318 125.48C345.879 125.168 346.483 125.021 347.081 125.021C348.354 125.021 349.59 125.693 350.253 126.885C351.227 128.633 350.601 130.846 348.847 131.821C348.712 131.901 348.558 131.904 348.41 131.959C348.77 133.3 348.94 134.693 348.897 136.115C349.051 136.136 349.208 136.155 349.356 136.195C351.279 136.746 352.408 138.753 351.856 140.68C351.403 142.276 349.948 143.318 348.366 143.318C348.04 143.318 347.707 143.272 347.377 143.18C347.223 143.133 347.084 143.063 346.939 143.004C346.227 144.237 345.352 145.334 344.344 146.278C344.436 146.404 344.566 146.49 344.643 146.632C345.617 148.377 344.988 150.59 343.237 151.564C342.676 151.875 342.072 152.027 341.474 152.027C340.201 152.027 338.965 151.355 338.305 150.165C338.225 150.026 338.219 149.872 338.163 149.721C336.949 150.051 335.691 150.22 334.412 150.22C334.276 150.22 334.144 150.217 334.008 150.214C333.983 150.365 333.971 150.519 333.931 150.673C333.472 152.267 332.014 153.312 330.432 153.312C330.106 153.312 329.773 153.266 329.446 153.173C327.516 152.621 326.397 150.618 326.946 148.688C326.992 148.54 327.054 148.395 327.122 148.254C325.886 147.541 324.794 146.666 323.845 145.655C323.716 145.744 323.635 145.88 323.494 145.957C322.936 146.268 322.331 146.416 321.733 146.416C320.457 146.416 319.221 145.744 318.558 144.554C317.584 142.804 318.21 140.59 319.961 139.616C320.1 139.539 320.254 139.53 320.399 139.474C320.041 138.137 319.872 136.746 319.909 135.319C319.761 135.298 319.603 135.282 319.449 135.242C317.526 134.693 316.404 132.687 316.952 130.757C317.406 129.16 318.861 128.122 320.445 128.122C320.772 128.122 321.102 128.165 321.434 128.257C321.589 128.303 321.727 128.368 321.869 128.433C322.584 127.203 323.46 126.102 324.468 125.156C324.378 125.03 324.249 124.947 324.169 124.805C323.192 123.06 323.823 120.847 325.574 119.873C326.132 119.561 326.743 119.413 327.338 119.413C328.611 119.413 329.844 120.082 330.506 121.275C330.586 121.414 330.59 121.568 330.651 121.713C331.866 121.386 333.12 121.217 334.409 121.217C334.541 121.217 334.671 121.22 334.803 121.223C334.825 121.075 334.84 120.918 334.88 120.764C335.337 119.17 336.792 118.128 338.373 118.128" fill="#29B5E8"/>
<path fill-rule="evenodd" clip-rule="evenodd" d="M334.405 128.934C331.387 128.934 328.696 130.965 327.873 133.869C326.85 137.469 328.946 141.233 332.543 142.262C333.156 142.435 333.779 142.521 334.402 142.521C337.423 142.521 340.114 140.493 340.94 137.589C341.436 135.842 341.223 134.007 340.339 132.42C339.457 130.836 338.005 129.689 336.264 129.193C335.659 129.023 335.034 128.934 334.405 128.934M334.406 132.016C334.739 132.016 335.084 132.062 335.423 132.158C337.393 132.716 338.536 134.772 337.975 136.744C337.513 138.372 336.018 139.439 334.403 139.439C334.07 139.439 333.728 139.395 333.392 139.3C331.422 138.736 330.278 136.68 330.839 134.713C331.302 133.082 332.79 132.016 334.406 132.016" fill="#29B5E8"/>
</svg>
