<?xml version="1.0" encoding="UTF-8"?>
<svg id="Layer_2" data-name="Layer 2" xmlns="http://www.w3.org/2000/svg" viewBox="0 0 448.05 147.05">
  <defs>
    <style>
      .cls-1 {
        fill: #fff;
      }
    </style>
  </defs>
  <g id="Layer_1-2" data-name="Layer 1">
    <g>
      <g>
        <path class="cls-1" d="M165.74,70.5h-20.47V17.33h20.47c17.1,0,27.91,11.34,27.91,26.58s-10.81,26.58-27.91,26.58ZM158.12,28.41v31.01h6.65c8.59,0,15.59-5.76,15.59-15.51,0-10.28-7-15.51-15.59-15.51h-6.65Z"/>
        <path class="cls-1" d="M248.59,70.5h-13.82l-3.28-9.57h-20.38l-3.28,9.57h-13.82l20.29-53.16h14l20.29,53.16ZM214.56,50.83h13.47l-6.73-19.67-6.73,19.67Z"/>
        <path class="cls-1" d="M244.16,17.33h42.8v11.08h-14.98v42.09h-12.85V28.41h-14.97v-11.08Z"/>
        <path class="cls-1" d="M337.11,70.5h-13.82l-3.28-9.57h-20.38l-3.28,9.57h-13.82l20.29-53.16h14l20.29,53.16ZM303.09,50.83h13.47l-6.73-19.67-6.73,19.67Z"/>
        <path class="cls-1" d="M192.76,136.16h-12.85v-21.62h-21.8v21.62h-12.85v-53.25h12.85v21.53h21.8v-21.53h12.85v53.25Z"/>
        <path class="cls-1" d="M238.22,114.18h-21.62v10.81h25.79v11.08h-38.63v-53.17h38.63v11.08h-25.79v10.1h21.62v10.1Z"/>
        <path class="cls-1" d="M274.46,82.9c12.14,0,20.47,7.53,20.47,17.9,0,7.35-3.81,12.94-9.92,15.77v.98l11.96,17.63v.89h-14.62l-11.08-17.46h-7.44v17.46h-12.85v-53.17h23.48ZM273.58,93.98h-9.75v13.73h9.84c4.52,0,7.97-2.39,7.97-6.91s-3.37-6.82-8.06-6.82Z"/>
        <path class="cls-1" d="M300.69,109.49c0-15.24,11.16-27.73,27.2-27.73s27.38,12.49,27.38,27.73-11.17,27.82-27.38,27.82-27.2-12.58-27.2-27.82ZM341.98,109.49c0-9.22-6.2-15.33-14.09-15.33s-13.91,6.11-13.91,15.33,6.2,15.33,13.91,15.33,14.09-6.11,14.09-15.33Z"/>
        <path class="cls-1" d="M395.95,114.18h-21.62v10.81h25.79v11.08h-38.63v-53.17h38.63v11.08h-25.79v10.1h21.62v10.1Z"/>
        <path class="cls-1" d="M412.34,120.3s7.62,5.14,14.8,5.14c3.99,0,5.85-1.77,5.85-4.43s-1.68-4.16-9.13-6.38c-11.16-3.28-17.54-7.62-17.54-16.39,0-9.66,6.56-16.48,20.56-16.48s20.03,5.67,20.03,5.67l-6.91,10.46s-5.58-4.43-13.11-4.43c-4.34,0-5.76,1.68-5.76,3.9,0,2.66,2.3,3.72,8.42,5.49,11.79,3.28,18.52,7.89,18.52,16.75,0,9.66-6.47,17.63-20.47,17.63-14.71,0-22.24-7.09-22.24-7.09l7-9.84Z"/>
      </g>
      <path class="cls-1" d="M112.26,85.34c0,26.91-29.75,45.75-50.56,50.43-20.8-4.68-50.55-23.53-50.55-50.43V29.11c24.9.55,38.33-5.45,50.55-16,12.23,10.55,25.67,16.58,50.56,16v56.23ZM121.66,19.25c-1.12-1.05-2.6-1.61-4.15-1.51-27.67,1.61-39.61-4.45-51.97-16.2-2.15-2.05-5.53-2.05-7.68,0-12.36,11.75-24.29,17.8-51.97,16.2-1.55-.1-3.03.46-4.15,1.51-1.12,1.05-1.75,2.52-1.75,4.06v62.04c0,33.98,35.43,56.48,60.59,61.6.37.08.74.11,1.11.11s.75-.04,1.11-.11c25.16-5.13,60.59-27.62,60.59-61.6V23.3c0-1.53-.63-3-1.75-4.06"/>
      <polygon class="cls-1" points="79.55 80.92 79.31 79.17 63.68 69.39 77.9 33 76.68 32.24 42.06 69.76 42.3 71.52 57.93 81.29 43.71 117.68 44.93 118.44 79.55 80.92"/>
    </g>
  </g>
</svg>