<svg width="177" height="43" viewBox="0 0 177 43" fill="none" xmlns="http://www.w3.org/2000/svg">
<path fill-rule="evenodd" clip-rule="evenodd" d="M107.88 14.6018L107.875 14.5987C107.875 14.5987 107.872 14.597 107.869 14.597C107.754 14.5456 107.629 14.519 107.507 14.519C107.311 14.5204 107.123 14.5801 106.959 14.6847C106.792 14.7927 106.651 14.9505 106.569 15.1476V15.1524L102.741 25.8422L99.791 18.6772L99.7863 18.6738C99.7034 18.4736 99.5549 18.3189 99.3864 18.2112C99.2159 18.1032 99.0197 18.0438 98.813 18.0438C98.6123 18.0438 98.4253 18.1077 98.2598 18.2126C98.0971 18.3204 97.9502 18.4736 97.8674 18.6738L97.8657 18.6772L94.9095 25.847L91.0608 15.1617H91.058C90.9907 14.9553 90.8541 14.7941 90.6917 14.6878C90.5262 14.5801 90.333 14.5204 90.1338 14.519C90.0066 14.519 89.878 14.5456 89.7566 14.597H89.7508L89.746 14.6018C89.3874 14.7723 89.1682 15.1383 89.1668 15.537C89.1668 15.6622 89.1912 15.7872 89.2386 15.9108H89.2372L93.9713 28.8807V28.8855C94.0082 28.9822 94.0603 29.0778 94.1371 29.1716C94.1919 29.2389 94.2734 29.2952 94.3577 29.3422C94.3732 29.3577 94.3976 29.3795 94.4342 29.403C94.4741 29.4281 94.5248 29.4454 94.5769 29.4547C94.6611 29.483 94.7731 29.5248 94.9233 29.5248C95.1145 29.5248 95.2925 29.4547 95.4518 29.3498C95.6006 29.2483 95.7339 29.0964 95.8074 28.8996L95.8196 28.89L98.813 21.5887L101.811 28.8603H101.814C101.883 29.0543 102.004 29.2061 102.145 29.3139C102.294 29.4281 102.46 29.4985 102.637 29.5248H102.763C102.882 29.5248 102.999 29.5016 103.096 29.4626C103.199 29.4219 103.282 29.3687 103.351 29.3156C103.512 29.1903 103.636 29.0184 103.713 28.8275V28.823L108.416 15.9108C108.462 15.7872 108.487 15.6637 108.487 15.5387C108.485 15.1431 108.257 14.7661 107.88 14.6018V14.6018ZM86.2394 22.0064C86.2394 20.4833 85.6663 19.1039 84.7545 18.1077C83.838 17.1101 82.5964 16.5001 81.2478 16.5001C79.899 16.5001 78.6546 17.1101 77.7395 18.1077C76.826 19.1039 76.2529 20.4833 76.2529 22.0064C76.2529 23.528 76.826 24.8946 77.7395 25.8844C78.6546 26.8775 79.899 27.4781 81.2478 27.4781C82.5964 27.4781 83.8424 26.8775 84.7545 25.8844C85.6663 24.8946 86.2394 23.528 86.2394 22.0064V22.0064ZM86.2133 16.7193C87.4793 18.089 88.2487 19.9687 88.2517 22.0064C88.2487 24.044 87.4793 25.922 86.2133 27.292C84.9568 28.6604 83.2019 29.5251 81.2509 29.5251C79.315 29.5251 77.5571 28.6604 76.2959 27.292C75.0329 25.922 74.2514 24.044 74.2514 22.0064C74.2514 19.9687 75.0329 18.089 76.2959 16.7193C77.5571 15.3523 79.315 14.4876 81.2509 14.4876C83.2019 14.4876 84.9568 15.3523 86.2133 16.7193V16.7193ZM66.2817 14.5142C64.7122 14.5142 63.2794 15.1383 62.2096 16.1342V15.5387C62.208 15.2649 62.1085 15.0099 61.9336 14.8224C61.7637 14.6377 61.5121 14.5142 61.2363 14.5142C60.9511 14.5142 60.6937 14.6315 60.5147 14.8207C60.3384 15.0068 60.2325 15.2649 60.2325 15.5387V28.8105L60.2738 28.8527L60.2755 28.8589C60.2863 28.9027 60.3137 28.9511 60.3428 28.998C60.4792 29.2435 60.7028 29.4298 60.9802 29.5124L61.0202 29.5251H61.2363C61.3804 29.5251 61.5259 29.4937 61.664 29.4281C61.779 29.3719 61.8862 29.2811 61.9721 29.1654L61.9752 29.1668C61.9857 29.1561 61.989 29.142 62.0012 29.1309C62.0057 29.1295 62.0104 29.1247 62.0134 29.1199C62.0669 29.0498 62.1115 28.9777 62.1392 28.9106C62.1683 28.8306 62.1866 28.7557 62.2005 28.6977L62.2096 28.6604V20.6912C62.2387 19.5513 62.6985 18.5206 63.4357 17.7715C64.1682 17.0227 65.172 16.5598 66.2817 16.5598C67.4099 16.5598 68.4165 17.0227 69.1462 17.7715C69.8787 18.5177 70.3232 19.5465 70.3232 20.6804V28.5054C70.3232 28.7916 70.4427 29.056 70.6236 29.2373C70.809 29.4185 71.0618 29.5251 71.3256 29.5251C71.5936 29.5251 71.8453 29.4185 72.029 29.2373C72.2161 29.056 72.3294 28.7916 72.3294 28.5054V20.6804C72.3294 17.3026 69.6259 14.519 66.2817 14.5142V14.5142ZM165.079 20.5551C164.509 18.1954 162.478 16.5143 160.161 16.5191C157.785 16.5191 155.782 18.1643 155.161 20.5551H165.079ZM167.275 21.5217V21.6232C167.275 21.9062 167.151 22.161 166.962 22.3284C166.775 22.4973 166.531 22.5849 166.27 22.588H155.022C155.308 25.3887 157.5 27.4563 160.116 27.4781H160.78C161.645 27.4812 162.489 27.1764 163.23 26.671C163.973 26.1708 164.616 25.4718 165.068 24.7024C165.161 24.5381 165.295 24.4131 165.44 24.3364C165.589 24.2536 165.749 24.216 165.909 24.216C166.087 24.216 166.263 24.2629 166.418 24.3582L166.429 24.363L166.441 24.3724C166.723 24.5836 166.899 24.9057 166.899 25.2591C166.899 25.439 166.853 25.6219 166.757 25.7877L166.754 25.7939L166.751 25.797C166.122 26.8167 165.265 27.747 164.248 28.4212C163.229 29.0967 162.047 29.5251 160.78 29.5251H160.105C158.131 29.511 156.347 28.6604 155.061 27.2997C153.779 25.944 152.988 24.0814 152.988 22.0346C152.988 19.9531 153.785 18.0642 155.078 16.6972C156.372 15.3322 158.17 14.4876 160.161 14.4876C162.061 14.4876 163.768 15.2587 165.033 16.5208C166.297 17.7825 167.123 19.5354 167.27 21.5075L167.275 21.5217ZM121.139 8.3106C120.864 8.3106 120.613 8.42795 120.432 8.61261C120.251 8.79556 120.136 9.05346 120.136 9.3334V28.5054C120.136 28.7854 120.251 29.0419 120.432 29.2234C120.613 29.4047 120.864 29.5251 121.139 29.5251C121.707 29.5251 122.167 29.0684 122.17 28.5054V9.3334C122.167 8.76898 121.707 8.3106 121.139 8.3106V8.3106ZM55.5949 21.6404C54.7856 21.2511 53.8674 20.9635 52.9512 20.6535C52.1081 20.3629 51.2529 20.1157 50.6429 19.7905C50.3364 19.6231 50.0972 19.4464 49.9426 19.2479C49.7846 19.0493 49.7081 18.8474 49.7034 18.5723C49.7051 18.1954 49.8123 17.8919 49.993 17.623C50.2674 17.2212 50.7272 16.9084 51.2299 16.7065C51.7265 16.5035 52.2645 16.4079 52.6491 16.4079C53.7862 16.4096 54.5051 16.7959 55.0569 17.196C55.3296 17.3979 55.5597 17.6027 55.7772 17.7715C55.8892 17.8591 55.9934 17.9389 56.1145 17.9983C56.2292 18.0562 56.3642 18.1032 56.5114 18.1032C56.6048 18.1032 56.6984 18.0859 56.7841 18.0483C56.8744 18.011 56.9528 17.9578 57.0279 17.8919C57.1014 17.8218 57.1643 17.7373 57.2086 17.6434C57.2486 17.5464 57.2668 17.4463 57.2668 17.3479C57.2668 17.1663 57.21 16.9961 57.1288 16.8363C56.9772 16.555 56.7442 16.2861 56.4471 16.0171C56.0056 15.6167 55.4233 15.2352 54.7964 14.9474C54.1679 14.6598 53.4936 14.4641 52.8514 14.4641C51.3632 14.4641 50.1202 14.8083 49.2176 15.4417C48.747 15.7731 48.3332 16.1359 48.0406 16.6364C47.7432 17.1383 47.5777 17.7576 47.5561 18.563C47.5547 18.5989 47.5547 18.6348 47.5547 18.6707C47.5517 19.4526 47.7983 20.097 48.1861 20.6021C48.7747 21.3622 49.6483 21.8172 50.5052 22.1393C51.3604 22.4613 52.2154 22.6539 52.755 22.8383C53.5149 23.0965 54.3228 23.3761 54.9111 23.7468C55.2041 23.936 55.4416 24.1393 55.6026 24.363C55.7589 24.5929 55.8476 24.8304 55.8509 25.1308V25.1528C55.8493 25.5874 55.7237 25.9285 55.5167 26.2209C55.2041 26.6555 54.6844 26.9745 54.1327 27.1764C53.5825 27.3732 53.0108 27.4563 52.643 27.4563C51.3449 27.4563 50.4761 27.1371 49.8461 26.8167C49.5302 26.6555 49.2744 26.496 49.043 26.3614C48.928 26.2972 48.8207 26.2378 48.7074 26.1909C48.5968 26.1442 48.479 26.1143 48.3457 26.1143C48.2645 26.1143 48.1755 26.1284 48.094 26.1612C48.0115 26.1974 47.9364 26.2474 47.8734 26.3082C47.7861 26.3945 47.7097 26.4912 47.6559 26.6023C47.6038 26.7135 47.5777 26.8305 47.5777 26.9527C47.5777 27.1529 47.6512 27.3359 47.7557 27.5016C47.9194 27.7408 48.1603 27.9551 48.4604 28.1692C48.77 28.3804 49.1394 28.5883 49.5654 28.7933C50.5096 29.2483 51.7204 29.4861 52.64 29.5016H52.643C54.0731 29.5016 55.3083 29.1654 56.349 28.3835V28.3818H56.3503C57.368 27.6 58.001 26.438 58.001 25.1262C58.001 24.4052 57.8355 23.7938 57.5459 23.2933C57.1091 22.5349 56.3994 22.0346 55.5949 21.6404V21.6404ZM136.253 22.0064C136.253 20.4692 135.685 19.0915 134.776 18.097C133.868 17.1055 132.622 16.5035 131.26 16.5004C129.908 16.5004 128.667 17.1055 127.75 18.097C126.84 19.0915 126.264 20.4692 126.264 22.0064C126.264 23.5421 126.84 24.9105 127.75 25.8971C128.662 26.884 129.908 27.4781 131.26 27.4781C132.626 27.4781 133.872 26.884 134.779 25.9002C135.685 24.9105 136.253 23.5435 136.253 22.0064V22.0064ZM137.957 14.7723C138.143 14.9553 138.258 15.2197 138.258 15.5056V28.5054C138.258 28.7854 138.14 29.0419 137.964 29.2234C137.783 29.4047 137.533 29.5251 137.257 29.5251C136.981 29.5251 136.728 29.4047 136.55 29.2234C136.37 29.0419 136.253 28.7854 136.253 28.5054V27.2372C134.992 28.6276 133.22 29.5251 131.26 29.5251C129.309 29.5251 127.552 28.6697 126.294 27.2997C125.032 25.9361 124.259 24.0579 124.259 22.0064C124.259 19.9548 125.032 18.0749 126.294 16.7099C127.552 15.3416 129.309 14.4876 131.26 14.4876C133.219 14.4876 134.992 15.3588 136.253 16.7427V15.5056C136.253 15.2197 136.368 14.9553 136.554 14.7723C136.739 14.5925 136.989 14.4876 137.257 14.4876C137.522 14.4876 137.775 14.5925 137.957 14.7723V14.7723ZM152.108 16.0907C152.307 15.8887 152.416 15.6212 152.416 15.3557C152.416 15.0944 152.307 14.8331 152.107 14.644H152.108C152.107 14.6377 152.102 14.6377 152.102 14.6377C152.1 14.6332 152.097 14.6315 152.097 14.6315H152.094C151.901 14.4375 151.653 14.3312 151.397 14.3312C151.138 14.3312 150.885 14.4409 150.692 14.6377L142.856 22.4302V9.3334C142.856 8.76898 142.393 8.3106 141.824 8.3106C141.55 8.3106 141.299 8.42795 141.119 8.61261C140.941 8.79556 140.822 9.05346 140.822 9.3334V28.5054C140.822 28.7854 140.941 29.0419 141.119 29.2234C141.299 29.4047 141.55 29.5251 141.824 29.5251C142.393 29.5251 142.856 29.0684 142.856 28.5054V25.342L145.407 22.7413L150.609 29.1451C150.707 29.2921 150.841 29.3936 150.972 29.4468C151.123 29.5048 151.268 29.5251 151.398 29.5251C151.578 29.5251 151.831 29.4861 152.053 29.3077L152.065 29.3L152.079 29.2859C152.287 29.0764 152.405 28.7978 152.405 28.5133C152.405 28.2741 152.318 28.0301 152.157 27.8347V27.8316L146.862 21.2635L152.103 16.0907H152.108ZM117.004 8.35613H116.78C116.751 8.35613 116.722 8.35924 116.691 8.36065C116.663 8.35924 116.634 8.35613 116.605 8.35613C116.027 8.35613 115.466 8.42315 114.942 8.60158C114.426 8.77662 113.949 9.0659 113.58 9.50562L113.578 9.50392L113.577 9.50562V9.50703C113.195 9.94025 112.944 10.4577 112.791 11.0459C112.637 11.6369 112.574 12.3031 112.568 13.0598V14.5255H110.985C110.435 14.5286 109.998 14.9774 109.998 15.52C109.995 15.8124 110.107 16.0813 110.288 16.2753C110.47 16.4662 110.72 16.5912 110.997 16.6067H112.568V28.5306L112.567 28.5586C112.567 28.8385 112.682 29.0964 112.867 29.2811C113.051 29.4626 113.309 29.5704 113.589 29.5704C114.122 29.5673 114.56 29.1233 114.562 28.5586V16.6067H116.265C116.539 16.5912 116.792 16.4738 116.973 16.2846C117.158 16.0955 117.272 15.8296 117.272 15.5418V15.5028C117.266 14.9663 116.826 14.5255 116.276 14.5255H114.562V13.0661C114.573 12.4205 114.639 11.9372 114.734 11.5854C114.826 11.232 114.951 11.0097 115.065 10.8723C115.175 10.7501 115.319 10.6486 115.554 10.5672C115.79 10.4891 116.116 10.4391 116.558 10.4391H116.61C116.636 10.4391 116.663 10.4343 116.688 10.4343C116.719 10.4343 116.748 10.4391 116.78 10.4391H116.909H117.004C117.569 10.4391 118.024 9.97305 118.024 9.3976C118.024 8.82214 117.569 8.35613 117.004 8.35613V8.35613ZM16.061 22.6833C16.1422 22.422 16.176 22.1531 16.1699 21.8873C16.1605 21.695 16.1361 21.5027 16.0826 21.3104C15.9216 20.7129 15.54 20.1796 14.9683 19.8434L6.83613 15.052C5.68821 14.3779 4.22463 14.7786 3.56559 15.9481C2.90046 17.1163 3.29289 18.6079 4.4408 19.2838L8.98508 21.9656L4.4408 24.6396C3.29289 25.3168 2.90184 26.8085 3.56559 27.9814C4.22463 29.1479 5.68821 29.5469 6.83613 28.8728L14.9683 24.0783C15.517 23.7562 15.8895 23.2509 16.061 22.6833V22.6833ZM18.2679 27.173C17.8006 27.1323 17.3148 27.2324 16.878 27.4919L8.73981 32.2802C7.59494 32.9558 7.2039 34.4553 7.8646 35.6252C8.52835 36.7919 9.99054 37.1938 11.1337 36.5151L15.6933 33.8315V39.1938C15.6933 40.5449 16.7644 41.6396 18.0903 41.6396C19.4097 41.6396 20.4842 40.5449 20.4842 39.1938V29.6077C20.4842 28.3208 19.5064 27.2635 18.2679 27.173V27.173ZM26.6023 16.7549C27.0682 16.7939 27.5527 16.6924 27.9894 16.4359L36.126 11.6431C37.2725 10.9673 37.6616 9.47395 37.0026 8.30127C36.3422 7.13312 34.8786 6.7327 33.7334 7.40826L29.1773 10.0949V4.73092C29.1773 3.38321 28.1058 2.28857 26.7803 2.28857C25.4544 2.28857 24.3861 3.38321 24.3861 4.73092V14.3171C24.3861 15.6026 25.361 16.6613 26.6023 16.7549V16.7549ZM8.73981 11.6431L16.878 16.4359C17.3148 16.6924 17.8006 16.7939 18.2679 16.7549C19.5064 16.6613 20.4842 15.6026 20.4842 14.3171V4.73092C20.4842 3.38321 19.4097 2.28857 18.0903 2.28857C16.7644 2.28857 15.6933 3.38321 15.6933 4.73092V10.0949L11.1337 7.40826C9.99054 6.7327 8.52835 7.13312 7.8646 8.30127C7.2039 9.47395 7.59494 10.9673 8.73981 11.6431V11.6431ZM24.0335 21.9453C24.0335 21.8061 23.9509 21.6122 23.8545 21.5089L22.8751 20.5144C22.7786 20.416 22.5885 20.3346 22.4519 20.3346H22.4136C22.2773 20.3346 22.0875 20.416 21.9924 20.5144L21.013 21.5089C20.9149 21.6122 20.8398 21.8061 20.8398 21.9453V21.9843C20.8398 22.122 20.9149 22.3143 21.013 22.4144L21.9924 23.412C22.0888 23.5104 22.2773 23.5919 22.4136 23.5919H22.4519C22.5885 23.5919 22.7786 23.5104 22.8751 23.412L23.8545 22.4144C23.9509 22.3143 24.0335 22.122 24.0335 21.9843V21.9453ZM26.7373 22.9022L23.3548 26.349C23.2581 26.4505 23.0713 26.5333 22.9302 26.5333H22.685H22.1853H21.9356C21.7989 26.5333 21.6091 26.4505 21.511 26.349L18.1302 22.9022C18.0334 22.8052 17.9553 22.6098 17.9553 22.4724V22.2173V21.7075V21.4558C17.9553 21.315 18.0334 21.1196 18.1302 21.0212L21.511 17.5744C21.6091 17.4729 21.7989 17.3931 21.9356 17.3931H22.1853H22.685H22.9302C23.0683 17.3931 23.2581 17.4729 23.3548 17.5744L26.7373 21.0212C26.8338 21.1196 26.9119 21.315 26.9119 21.4558V21.7075V22.2173V22.4724C26.9119 22.6098 26.8338 22.8052 26.7373 22.9022V22.9022ZM36.126 32.2802L27.9894 27.4919C27.5527 27.2324 27.0682 27.1323 26.6023 27.173C25.361 27.2635 24.3861 28.3208 24.3861 29.6077V39.1938C24.3861 40.5449 25.4544 41.6396 26.7803 41.6396C28.1058 41.6396 29.1773 40.5449 29.1773 39.1938V33.8315L33.7334 36.5151C34.8783 37.1938 36.3422 36.7919 37.0026 35.6252C37.6616 34.4553 37.2725 32.9558 36.126 32.2802V32.2802ZM40.4281 19.2838L35.8838 21.9656L40.4281 24.6396C41.576 25.3168 41.9684 26.8085 41.3047 27.9814C40.6426 29.1479 39.1776 29.5469 38.0341 28.8728L29.8959 24.0783C29.3532 23.7562 28.9763 23.2509 28.8092 22.6833C28.7297 22.422 28.6928 22.1531 28.702 21.8873C28.7067 21.695 28.7341 21.5027 28.7862 21.3104C28.9489 20.7129 29.3305 20.1799 29.8959 19.8434L38.0341 15.052C39.1776 14.3779 40.6426 14.7786 41.3047 15.9481C41.9684 17.1163 41.576 18.6079 40.4281 19.2838V19.2838Z" fill="white"/>
<path fill-rule="evenodd" clip-rule="evenodd" d="M170.044 16.9671C171.518 16.9671 172.399 15.8451 172.399 14.5009C172.399 13.1566 171.518 12.0347 170.044 12.0347C168.582 12.0347 167.71 13.1566 167.71 14.5009C167.71 15.8345 168.582 16.9671 170.044 16.9671ZM170.044 12.4898C171.186 12.4898 171.932 13.3577 171.932 14.5009C171.932 15.644 171.186 16.512 170.044 16.512C168.924 16.512 168.177 15.6334 168.177 14.5009C168.177 13.3154 168.924 12.4898 170.044 12.4898Z" fill="white"/>
<path fill-rule="evenodd" clip-rule="evenodd" d="M170.127 13.3896H169.121V15.5277H169.671V14.9668H170.117L170.501 15.5277H171.071V15.4113L170.677 14.8292C170.895 14.6916 171.04 14.4693 171.04 14.1729C171.04 13.6966 170.677 13.3896 170.127 13.3896ZM169.671 13.9083H170.117C170.335 13.9083 170.459 14.0036 170.459 14.1941C170.459 14.374 170.325 14.4693 170.117 14.4693H169.671V13.9083Z" fill="white"/>
</svg>
